<svg xmlns="http://www.w3.org/2000/svg" viewBox="0 0 800 900" width="100%" height="100%">
  <defs>
    <!-- Background Sunset Radial Gradient -->
    <radialGradient id="heroSunGlow" cx="45%" cy="40%" r="65%" fx="45%" fy="35%">
      <stop offset="0%" stop-color="#ff7e29" stop-opacity="1" />
      <stop offset="35%" stop-color="#f54708" stop-opacity="0.95" />
      <stop offset="70%" stop-color="#ab2300" stop-opacity="0.85" />
      <stop offset="100%" stop-color="#140a08" stop-opacity="1" />
    </radialGradient>
    
    <!-- Ambient Light Bloom -->
    <radialGradient id="sunFlare" cx="30%" cy="25%" r="40%">
      <stop offset="0%" stop-color="#ffbe53" stop-opacity="0.9" />
      <stop offset="60%" stop-color="#ff5500" stop-opacity="0.4" />
      <stop offset="100%" stop-color="#ff3300" stop-opacity="0" />
    </radialGradient>

    <!-- Overlay Shadow Gradient for Bottom Integration -->
    <linearGradient id="bottomFade" x1="0" y1="0" x2="0" y2="1">
      <stop offset="60%" stop-color="#0e0e12" stop-opacity="0" />
      <stop offset="92%" stop-color="#0e0e12" stop-opacity="0.85" />
      <stop offset="100%" stop-color="#0e0e12" stop-opacity="1" />
    </linearGradient>

    <!-- Edge Rim Lighting -->
    <linearGradient id="rimLight" x1="0" y1="0" x2="1" y2="0">
      <stop offset="0%" stop-color="#ffaa33" stop-opacity="0.8" />
      <stop offset="25%" stop-color="#ff6b00" stop-opacity="0.3" />
      <stop offset="100%" stop-color="#0a0a0c" stop-opacity="0" />
    </linearGradient>

    <!-- Subtle Grain / Texture Filter -->
    <filter id="noiseFilter">
      <feTurbulence type="fractalNoise" baseFrequency="0.8" numOctaves="3" result="noise" />
      <feColorMatrix type="matrix" values="1 0 0 0 0  0 1 0 0 0  0 0 1 0 0  0 0 0 0.05 0" />
      <feBlend mode="overlay" in="SourceGraphic" result="blend" />
    </filter>
  </defs>

  <!-- Background Base -->
  <rect width="800" height="900" fill="#0d0d11" rx="28" />
  
  <!-- Warm Sunset Sky Backing -->
  <rect width="800" height="850" fill="url(#heroSunGlow)" rx="28" />
  <circle cx="280" cy="260" r="320" fill="url(#sunFlare)" />

  <!-- Modern Architectural / Graphic Accents in Sky -->
  <circle cx="680" cy="180" r="140" fill="#ff7700" opacity="0.15" />
  <circle cx="120" cy="580" r="220" fill="#ff3700" opacity="0.2" />

  <!-- Stylized Silhouette / Profile of Creative Developer -->
  <!-- Shoulders & Torso -->
  <path d="M180,900 C200,720 250,650 360,630 C420,620 460,630 520,660 C610,705 650,760 670,900 Z" fill="#121013" />
  <!-- Torso Rim Warm Highlight -->
  <path d="M180,900 C200,720 250,650 360,630 C390,625 410,635 380,645 C290,670 230,735 200,900 Z" fill="url(#rimLight)" opacity="0.9" />

  <!-- Neck -->
  <path d="M370,640 L370,520 C370,510 440,510 440,520 L440,640 Z" fill="#1b1517" />
  <path d="M366,630 L366,520 C366,515 380,515 380,530 L380,630 Z" fill="#ff8c2b" opacity="0.7" />

  <!-- Head & Profile -->
  <path d="M360,530 C330,480 340,390 350,330 C370,230 460,210 520,270 C570,320 570,430 530,490 C490,550 420,560 360,530 Z" fill="#151216" />
  <!-- Rim Lighting on Face & Forehead Profile -->
  <path d="M360,530 C335,475 345,395 352,340 C370,245 450,220 495,240 C470,245 390,270 375,360 C365,415 355,475 375,520 Z" fill="#ffa43a" opacity="0.85" />

  <!-- Stylized Modern Curly / Volume Hair Crown -->
  <path d="M340,350 C310,320 310,250 350,190 C390,130 480,120 540,150 C600,180 620,250 610,320 C600,380 570,410 560,400 C580,330 570,240 520,200 C470,160 390,180 360,240 C340,280 350,320 340,350 Z" fill="#0f0c10" />
  <circle cx="430" cy="180" r="50" fill="#20181c" opacity="0.6" />
  <circle cx="510" cy="190" r="55" fill="#20181c" opacity="0.6" />
  <circle cx="370" cy="230" r="40" fill="#ff9033" opacity="0.3" />

  <!-- Modern Minimalist Chic Eyewear / Glasses (Creative Director Look) -->
  <ellipse cx="400" cy="360" rx="34" ry="28" fill="none" stroke="#ffaa44" stroke-width="4.5" />
  <ellipse cx="475" cy="370" rx="34" ry="28" fill="none" stroke="#ff7711" stroke-width="4" />
  <line x1="434" y1="362" x2="441" y2="365" stroke="#ffaa44" stroke-width="4.5" />
  <!-- Glasses Lens Reflection -->
  <path d="M380,345 L415,372" stroke="#ffffff" stroke-width="3" opacity="0.6" stroke-linecap="round" />
  <path d="M455,355 L490,382" stroke="#ffffff" stroke-width="3" opacity="0.6" stroke-linecap="round" />

  <!-- Ambient Glow Particle Accents -->
  <circle cx="240" cy="420" r="3" fill="#ffbb66" opacity="0.8" />
  <circle cx="290" cy="320" r="4" fill="#ffffff" opacity="0.9" />
  <circle cx="580" cy="290" r="2.5" fill="#ffa855" opacity="0.7" />
  <circle cx="620" cy="450" r="3.5" fill="#ff8833" opacity="0.6" />

  <!-- Bottom Smooth Integration Overlay Gradient -->
  <rect y="600" width="800" height="300" fill="url(#bottomFade)" />
</svg>
